<svg width="32" height="32" viewBox="0 0 32 32" fill="none" xmlns="http://www.w3.org/2000/svg">
<rect x="0.5" y="0.5" width="31" height="31" rx="7.5" stroke="#5B3B2D"/>
<path d="M18.9467 13.3001C20.5733 14.9267 20.5733 17.5667 18.9467 19.1934C17.32 20.8201 14.68 20.8201 13.0533 19.1934C11.4266 17.5667 11.4266 14.9267 13.0533 13.3001C14.68 11.6734 17.32 11.6734 18.9467 13.3001Z" stroke="#5B3B2D" stroke-linecap="round" stroke-linejoin="round"/>
<path d="M13.5 22.4266C12.1667 21.8933 11 20.9266 10.2267 19.5866C9.46666 18.2733 9.21333 16.8133 9.39333 15.4199" stroke="#5B3B2D" stroke-linecap="round" stroke-linejoin="round"/>
<path d="M11.9001 10.9866C13.0334 10.0999 14.4534 9.57324 16.0001 9.57324C17.5134 9.57324 18.9068 10.0866 20.0268 10.9399" stroke="#5B3B2D" stroke-linecap="round" stroke-linejoin="round"/>
<path d="M18.5 22.4266C19.8333 21.8933 21 20.9266 21.7733 19.5866C22.5333 18.2733 22.7867 16.8133 22.6067 15.4199" stroke="#5B3B2D" stroke-linecap="round" stroke-linejoin="round"/>
</svg>
